<svg width="104" height="104" viewBox="0 0 104 104" fill="none" xmlns="http://www.w3.org/2000/svg">
<g clip-path="url(#clip0_949_2140)">
<path d="M67.6615 67.2497C64.8153 66.2511 62.9254 63.5438 62.9254 60.5276V48.6016H50.2011V60.9705C50.2011 62.8579 49.1572 64.5903 47.4886 65.4725L46.205 66.151C44.4492 66.489 53.4952 81.6604 59.1798 81.6604C63.3808 81.6604 69.4163 73.3759 71.5727 68.9147C70.2952 68.2728 68.9761 67.7108 67.6615 67.2497Z" fill="#F9EAE2"/>
<path d="M71.9819 69.1183C70.9049 68.5577 69.792 68.0586 68.6748 67.6254L61.565 74.595C60.24 75.894 58.1192 75.894 56.7942 74.595L47.4885 65.4727C47.4885 65.4727 18.9141 69.6199 18.9141 94.3146V99.3988C18.9141 101.941 20.9746 104.001 23.5161 104.001H32.2945V103.283C32.2945 103.163 32.9945 103.066 33.8578 103.066C34.721 103.066 35.421 103.163 35.421 103.283V104.001H83.6043V103.283C83.6043 103.163 84.3043 103.066 85.1675 103.066C85.7548 103.066 86.2658 103.111 86.533 103.178C86.5457 103.233 86.5541 103.289 86.5541 103.346V94.002C86.5539 79.7166 78.6476 72.5895 71.9819 69.1183Z" fill="#DB636E"/>
<path d="M66.9492 67.5623C68.2567 68.0209 69.7474 68.6352 71.3048 69.4489C72.2642 67.5919 72.6627 66.2489 72.1543 66.151L70.8707 65.4725C69.2021 64.5905 68.1582 62.8579 68.1582 60.9705V48.6016H62.2131V60.8403C62.2131 63.8567 64.1032 66.5639 66.9492 67.5623Z" fill="#F5DBCC"/>
<path d="M70.8708 65.4727L68.2444 68.0473C75.2451 70.8315 85.8415 77.7767 85.8415 94.3146V104.001H94.843C97.3847 104.001 99.445 101.94 99.445 99.3988V94.3146C99.4454 69.6199 70.8708 65.4727 70.8708 65.4727Z" fill="#D84A54"/>
<path d="M70.8708 65.4727L61.5651 74.595C60.9025 75.2444 60.0412 75.5692 59.1798 75.5692C58.3183 75.5692 57.4569 75.2444 56.7945 74.595L47.4887 65.4727C47.4887 65.4727 46.8318 65.5681 45.7175 65.8159C43.8315 66.2354 42.9135 68.3838 43.9086 70.0399C45.8515 73.2737 48.5765 77.7768 48.5765 77.7768C49.3597 79.0575 50.8929 79.6693 52.3426 79.2799L59.18 75.5694L66.0174 79.2799C67.4671 79.6693 69.0003 79.0575 69.7835 77.7768C69.7835 77.7768 72.5084 73.2739 74.4513 70.0399C75.4462 68.3838 74.5285 66.2352 72.6425 65.8159C71.5278 65.5681 70.8708 65.4727 70.8708 65.4727Z" fill="#D84A54"/>
<path d="M35.2595 43.8984L39.1949 49.3288L30.8768 55.3568L26.9415 49.9265L35.2595 43.8984Z" fill="#BCD6F9"/>
<path d="M9.8449 71.44L5.11087 64.9095C4.1186 63.5406 4.49256 61.6175 5.92581 60.7205L24.1717 49.3006C25.4733 48.4858 27.1837 48.8185 28.0851 50.0619L31.1019 54.2235C32.0032 55.4668 31.7875 57.1958 30.6083 58.1796L14.0796 71.9683C12.7813 73.0514 10.8374 72.8088 9.8449 71.44Z" fill="#407093"/>
<path d="M64.4972 54.9306C78.164 45.0234 81.2117 25.9128 71.3045 12.2459C66.9344 6.21758 60.7735 2.25623 54.0791 0.560547C49.9057 1.37548 45.8389 3.08762 42.1697 5.74755C28.6734 15.5311 25.6637 34.403 35.4472 47.8992C40.1199 54.3452 46.8665 58.3969 54.1097 59.8074C57.7469 58.8814 61.2736 57.2674 64.4972 54.9306Z" fill="#C9E0FD"/>
<path d="M67.8942 52.0706C78.6025 41.658 80.3289 24.6934 71.3045 12.2443C70.2647 10.8098 69.1223 9.49378 67.8964 8.29615C59.6437 5.28117 50.0283 7.08289 43.4063 13.705C34.3057 22.8054 34.3057 37.5604 43.4063 46.661C50.0277 53.2822 59.6418 55.0844 67.8942 52.0706Z" fill="#EAF2FF"/>
<path d="M84.3214 12.4693C76.9699 2.32806 64.487 -1.89166 53.009 0.787767C59.8444 2.376 66.16 6.34161 70.6019 12.4693C80.3854 25.9655 77.3757 44.8373 63.8795 54.6208C60.5245 57.0528 56.8373 58.6934 53.0403 59.5799C61.2598 61.4898 70.2304 59.9621 77.5989 54.6208C91.095 44.8373 94.1047 25.9655 84.3214 12.4693Z" fill="#BCD6F9"/>
<path d="M76.3623 13.7067C73.4972 10.8417 70.0713 8.87928 66.4382 7.81836C67.9541 9.19514 69.3524 10.7466 70.602 12.4703C79.7354 25.0696 77.7179 42.3525 66.4294 52.5538C70.0658 51.4933 73.4949 49.5303 76.3623 46.6628C85.4627 37.5622 85.4627 22.8072 76.3623 13.7067Z" fill="#DBE8F9"/>
<path d="M60.93 18.0742L63.5388 24.2935C63.7023 24.6833 64.0691 24.95 64.4906 24.9849L71.2118 25.5441C72.2138 25.6274 72.6199 26.8768 71.8582 27.5333L66.7494 31.9363C66.429 32.2123 66.2889 32.6435 66.3858 33.0551L67.9309 39.6201C68.1613 40.5987 67.0985 41.371 66.2389 40.8494L60.4728 37.3512C60.1112 37.1318 59.6579 37.1318 59.2963 37.3512L53.5302 40.8494C52.6706 41.3708 51.6078 40.5987 51.8382 39.6201L53.3833 33.0551C53.4802 32.6435 53.3401 32.2123 53.0197 31.9363L47.911 27.5333C47.1492 26.8768 47.5553 25.6274 48.5573 25.5441L55.2785 24.9849C55.6998 24.9498 56.0666 24.6833 56.2303 24.2935L58.8391 18.0742C59.2275 17.1471 60.5411 17.1471 60.93 18.0742Z" fill="#7FB2F9"/>
<path d="M35.4209 104V93.5496C35.4209 92.6861 34.721 91.9863 33.8577 91.9863C32.9944 91.9863 32.2944 92.6861 32.2944 93.5496V104H35.4209Z" fill="#D84A54"/>
<path d="M86.5538 104V94.0015C86.5538 93.591 86.5457 93.188 86.5327 92.7893C86.2656 92.3105 85.7545 91.9863 85.1673 91.9863C84.304 91.9863 83.604 92.6861 83.604 93.5496V104H86.5538Z" fill="#D84A54"/>
</g>
<defs>
<clipPath id="clip0_949_2140">
<rect width="104" height="104" fill="white"/>
</clipPath>
</defs>
</svg>
