<svg width="48" height="48" viewBox="0 0 48 48" fill="none" xmlns="http://www.w3.org/2000/svg">
<path d="M1.32291 31.8781C0.465282 29.4091 -0.000468396 26.7568 3.53481e-07 23.9956C0.0023441 10.7674 10.8173 -0.0245207 24.0456 4.18453e-05C37.2795 0.0246981 48 10.7604 48 24C48 27.3418 47.317 30.5239 46.0831 33.4146C45.9283 33.7771 45.5698 34.0105 45.1756 34.0105H4.33097C2.97731 34.0105 1.76709 33.1569 1.32291 31.8781Z" fill="#60C8DD"/>
<path d="M4.8855 38.5163C3.33431 36.4768 2.10206 34.1814 1.26318 31.7046C1.55953 29.7078 3.28087 28.1758 5.36006 28.1758C7.48471 28.1758 9.23568 29.7755 9.47437 31.8362C11.0298 32.4325 12.1341 33.9397 12.1341 35.7049C12.1341 36.7901 11.7167 37.7778 11.0339 38.5162L4.8855 38.5163Z" fill="#5CA33B"/>
<path d="M19.4481 5.5293H14.4913C13.7147 5.5293 13.0851 4.89967 13.0851 4.12305C13.0851 3.34642 13.7147 2.7168 14.4913 2.7168H19.4481C20.2247 2.7168 20.8543 3.34642 20.8543 4.12305C20.8543 4.89967 20.2247 5.5293 19.4481 5.5293ZM9.74793 10.862C9.74793 10.0854 9.1183 9.45574 8.34168 9.45574H6.76611C5.98949 9.45574 5.35986 10.0854 5.35986 10.862C5.35986 11.6386 5.98949 12.2682 6.76611 12.2682H8.34168C9.1183 12.2682 9.74793 11.6386 9.74793 10.862ZM43.0221 11.9002C43.0221 11.1235 42.3924 10.4939 41.6158 10.4939H40.0402C39.2636 10.4939 38.634 11.1235 38.634 11.9002C38.634 12.6768 39.2636 13.3064 40.0402 13.3064H41.6158C42.3924 13.3064 43.0221 12.6768 43.0221 11.9002ZM36.3949 6.51733C36.0081 6.51733 35.6947 6.20383 35.6947 5.8172V5.70152C35.6947 4.92489 35.0651 4.29527 34.2885 4.29527H32.4095C31.6328 4.29527 31.0032 4.92489 31.0032 5.70152V5.8172C31.0032 6.20383 30.6897 6.51733 30.3031 6.51733C29.5265 6.51733 28.8968 7.14695 28.8968 7.92358C28.8968 8.7002 29.5265 9.32983 30.3031 9.32983H36.3949C37.1715 9.32983 37.8011 8.7002 37.8011 7.92358C37.8011 7.14695 37.1715 6.51733 36.3949 6.51733Z" fill="#A6E0EC"/>
<path d="M14.7656 5.625C14.7656 6.01331 14.4508 6.32812 14.0625 6.32812H13.8281V12.1875C13.8281 12.5758 13.5133 12.8906 13.125 12.8906C12.7367 12.8906 12.4219 12.5758 12.4219 12.1875V6.32812H12.1875C11.7992 6.32812 11.4844 6.01331 11.4844 5.625C11.4844 5.23669 11.7992 4.92188 12.1875 4.92188H14.0625C14.4508 4.92188 14.7656 5.23669 14.7656 5.625Z" fill="#865B47"/>
<path d="M41.8125 16.875V38.9062C41.8125 39.6829 41.1829 40.3125 40.4062 40.3125H7.59375C6.81712 40.3125 6.1875 39.6829 6.1875 38.9062V16.875L24 4.6875L41.8125 16.875Z" fill="#DCE6EB"/>
<path d="M41.8125 21.0938V38.9062C41.8125 39.6829 41.1829 40.3125 40.4063 40.3125H9.0752V19.118L24 8.90625L41.8125 21.0938Z" fill="#FFF5F5"/>
<path d="M20.625 39.375H11.25V21.5625H20.625V39.375Z" fill="#B9C3CD"/>
<path d="M27.2812 16.875H20.7187V13.125H27.2812V16.875ZM17.8265 26.2502C17.8265 25.1292 16.9177 24.2205 15.7968 24.2205C14.6758 24.2205 13.7671 25.1292 13.7671 26.2502V30.8062H17.8265V26.2502Z" fill="#FFC14F"/>
<path d="M38.5109 22.2656H24.7275C24.3392 22.2656 24.0244 21.9508 24.0244 21.5625C24.0244 21.1742 24.3392 20.8594 24.7275 20.8594H38.5109C38.8992 20.8594 39.214 21.1742 39.214 21.5625C39.214 21.9508 38.8992 22.2656 38.5109 22.2656ZM39.214 24.375C39.214 23.9867 38.8992 23.6719 38.5109 23.6719H24.7275C24.3392 23.6719 24.0244 23.9867 24.0244 24.375C24.0244 24.7633 24.3392 25.0781 24.7275 25.0781H38.5109C38.8992 25.0781 39.214 24.7633 39.214 24.375ZM39.214 27.1875C39.214 26.7992 38.8992 26.4844 38.5109 26.4844H24.7275C24.3392 26.4844 24.0244 26.7992 24.0244 27.1875C24.0244 27.5758 24.3392 27.8906 24.7275 27.8906H38.5109C38.8992 27.8906 39.214 27.5758 39.214 27.1875ZM20.625 20.8594H11.25C10.8617 20.8594 10.5469 21.1742 10.5469 21.5625V39.375C10.5469 39.7633 10.8617 40.0781 11.25 40.0781H20.625C21.0133 40.0781 21.3281 39.7633 21.3281 39.375V21.5625C21.3281 21.1742 21.0133 20.8594 20.625 20.8594ZM19.9219 38.6719H11.9531V34.3218H13.7672C14.1555 34.3218 14.4703 34.007 14.4703 33.6187C14.4703 33.2303 14.1555 32.9155 13.7672 32.9155H11.9531V22.2656H19.9219V38.6719ZM27.2812 12.4219H20.7188C20.3304 12.4219 20.0156 12.7367 20.0156 13.125V16.875C20.0156 17.2633 20.3304 17.5781 20.7188 17.5781H27.2812C27.6696 17.5781 27.9844 17.2633 27.9844 16.875V13.125C27.9844 12.7367 27.6696 12.4219 27.2812 12.4219ZM26.5781 16.1719H21.4219V13.8281H26.5781V16.1719ZM13.7672 31.5093H17.8266C18.2149 31.5093 18.5297 31.1945 18.5297 30.8062V26.2502C18.5297 24.7433 17.3037 23.5174 15.7969 23.5174C14.29 23.5174 13.0641 24.7433 13.0641 26.2502V30.8062C13.0641 31.1945 13.3789 31.5093 13.7672 31.5093ZM14.4703 26.2502C14.4703 25.5188 15.0654 24.9236 15.7969 24.9236C16.5283 24.9236 17.1234 25.5188 17.1234 26.2502V30.103H14.4703V26.2502Z" fill="#DCE6EB"/>
<path d="M35.6171 38.672C35.6169 38.6543 35.6167 38.6367 35.6167 38.619C35.6167 36.8538 36.721 35.3466 38.2764 34.7502C38.5151 32.6896 40.2661 31.0898 42.3907 31.0898C44.0132 31.0898 45.4177 32.0227 46.0973 33.3814C45.2889 35.2832 44.2421 37.0592 42.9945 38.672H35.6171ZM32.2175 38.672C32.2177 38.6543 32.2179 38.6367 32.2179 38.619C32.2179 36.8538 31.1136 35.3466 29.5582 34.7502C29.3195 32.6896 27.5686 31.0898 25.4439 31.0898C23.3193 31.0898 21.5683 32.6896 21.3296 34.7502C19.7742 35.3466 18.6699 36.8538 18.6699 38.619C18.6699 38.6367 18.67 38.6543 18.6703 38.672H32.2175Z" fill="#5CA33B"/>
<path d="M42.7011 28.1831V38.4565C42.7011 38.8187 42.4075 39.1123 42.0453 39.1123H26.7446C26.3825 39.1123 26.0889 38.8187 26.0889 38.4565V28.1831L34.395 22.5L42.7011 28.1831Z" fill="#FFCD71"/>
<path d="M28.0397 39.1122H26.7446C26.3825 39.1122 26.0889 38.8186 26.0889 38.4564V28.1831L34.3951 22.5L36.7608 23.6908L28.0397 29.6578V39.1122Z" fill="#FFC14F"/>
<path d="M38.6138 34.6875V40.7812H30.1763V34.6875C30.1763 32.3575 32.0651 30.4688 34.395 30.4688C36.7249 30.4688 38.6138 32.3575 38.6138 34.6875Z" fill="#9C6A53"/>
<path d="M35.4158 30.5932C33.579 31.0495 32.2178 32.7096 32.2178 34.6875V40.7812H30.1763V34.6875C30.1763 32.3575 32.0651 30.4688 34.395 30.4688C34.7471 30.4688 35.089 30.512 35.4158 30.5932Z" fill="#865B47"/>
<path d="M36.71 26.8457V28.3931C36.71 28.7815 36.3952 29.0963 36.0069 29.0963C35.6185 29.0963 35.3037 28.7815 35.3037 28.3931V28.3225H33.4866V28.3931C33.4866 28.7815 33.1718 29.0963 32.7834 29.0963C32.3951 29.0963 32.0803 28.7815 32.0803 28.3931V26.8457C32.0803 26.4574 32.3951 26.1426 32.7834 26.1426C33.1718 26.1426 33.4866 26.4574 33.4866 26.8457V26.9163H35.3037V26.8457C35.3037 26.4574 35.6185 26.1426 36.0069 26.1426C36.3952 26.1426 36.71 26.4574 36.71 26.8457Z" fill="#FFE7C0"/>
<path d="M44.7312 19.7144C44.5945 19.7144 44.4563 19.6746 44.3348 19.5914L24 5.6782L3.66518 19.5915C3.34475 19.8107 2.90722 19.7288 2.68784 19.4083C2.46856 19.0877 2.55059 18.6502 2.87112 18.4309L23.603 4.24588C23.8424 4.0821 24.1577 4.0821 24.3972 4.24588L45.129 18.4309C45.4495 18.6502 45.5315 19.0877 45.3123 19.4083C45.176 19.6073 44.9556 19.7144 44.7312 19.7144ZM25.1247 29.7591L34.3951 23.4162L43.6655 29.7591C43.9861 29.9783 44.4236 29.8963 44.6428 29.5758C44.8621 29.2553 44.7801 28.8178 44.4596 28.5985L34.7921 21.9839C34.5527 21.8201 34.2373 21.8201 33.9979 21.9839L24.3306 28.5985C24.0102 28.8178 23.9281 29.2553 24.1473 29.5758C24.2835 29.7749 24.5039 29.8819 24.7283 29.8819C24.8651 29.8819 25.0033 29.8422 25.1247 29.7591Z" fill="#FB5858"/>
<path d="M43.1734 38.4375C41.945 40.0663 40.5138 41.5336 38.9174 42.8018H9.08238C7.48601 41.5336 6.05482 40.0663 4.82642 38.4375H43.1734Z" fill="#5CA33B"/>
<path d="M39.2139 42.5622C35.073 45.9602 29.7746 47.9997 23.9999 47.9997C18.2252 47.9997 12.9268 45.9602 8.78589 42.5622H27.893V39.8555L30.3856 42.3481L32.4596 40.2741V42.5622H39.2139Z" fill="#6DC54A"/>
</svg>
